<?xml version="1.0" encoding="UTF-8" standalone="no"?>
<!-- Created with Inkscape (http://www.inkscape.org/) -->

<svg
   xmlns:dc="http://purl.org/dc/elements/1.1/"
   xmlns:cc="http://creativecommons.org/ns#"
   xmlns:rdf="http://www.w3.org/1999/02/22-rdf-syntax-ns#"
   xmlns:svg="http://www.w3.org/2000/svg"
   xmlns="http://www.w3.org/2000/svg"
   xmlns:sodipodi="http://sodipodi.sourceforge.net/DTD/sodipodi-0.dtd"
   xmlns:inkscape="http://www.inkscape.org/namespaces/inkscape"
   version="1.1"
   id="svg32"
   width="609.90161"
   height="549.95044"
   viewBox="0 0 609.90161 549.95044"
   sodipodi:docname="MenuB.svg"
   inkscape:version="0.92.2 (5c3e80d, 2017-08-06)">
  <metadata
     id="metadata38">
    <rdf:RDF>
      <cc:Work
         rdf:about="">
        <dc:format>image/svg+xml</dc:format>
        <dc:type
           rdf:resource="http://purl.org/dc/dcmitype/StillImage" />
        <dc:title></dc:title>
      </cc:Work>
    </rdf:RDF>
  </metadata>
  <defs
     id="defs36" />
  <sodipodi:namedview
     pagecolor="#ffffff"
     bordercolor="#666666"
     borderopacity="1"
     objecttolerance="10"
     gridtolerance="10"
     guidetolerance="10"
     inkscape:pageopacity="0"
     inkscape:pageshadow="2"
     inkscape:window-width="1920"
     inkscape:window-height="1017"
     id="namedview34"
     showgrid="false"
     inkscape:zoom="0.39"
     inkscape:cx="325.34185"
     inkscape:cy="263.78128"
     inkscape:window-x="1432"
     inkscape:window-y="-8"
     inkscape:window-maximized="1"
     inkscape:current-layer="svg32" />
  <path
     style="fill:#ffffff"
     d="m 43.40129,548.11653 c -9.9101,-2.89195 -18.0991,-7.69702 -25.3811,-14.89302 -8.1225,-8.02652 -13.409,-17.11773 -16.1218,-27.72476 -2.52429997,-9.87016 -2.53069997,-18.08253 -0.022,-27.89282 2.7848,-10.88848 7.3988,-18.96014 15.5246,-27.15867 7.9329,-8.0039 14.8983,-12.25141 25.6067,-15.61505 l 7.3933,-2.32229 h 254.5 254.5 l 7.3932,2.32229 c 10.7085,3.36364 17.6739,7.61115 25.6068,15.61505 8.1258,8.19853 12.7397,16.27019 15.5245,27.15867 2.5091,9.81029 2.5027,18.02266 -0.022,27.89282 -5.315,20.78145 -22.0285,37.57617 -42.7337,42.94145 -5.4309,1.40727 -32.433,1.56235 -260.9135,1.49848 -239.6957,-0.067 -255.2125,-0.1754 -260.8556,-1.82215 z m 6.5,-214.79174 c -10.8185,-1.83576 -24.3414,-8.8163 -32.09,-16.56486 -6.9207,-6.92065 -11.6834,-14.63778 -14.9985,-24.30211 -3.38769997,-9.87596 -3.38769997,-25.01984 0,-34.8958 6.61,-19.26982 19.9708,-32.32751 40.0885,-39.17897 5.3195,-1.81168 13.9152,-1.87313 262,-1.87313 248.0848,0 256.6804,0.0614 262,1.87313 20.1177,6.85146 33.4785,19.90915 40.0885,39.17897 3.3877,9.87596 3.3877,25.01984 0,34.8958 -6.4948,18.9339 -18.7304,31.1802 -38.8132,38.84726 l -5.7753,2.20484 -255,0.11955 c -140.25,0.0657 -256.125,-0.0714 -257.5,-0.30468 z m 1.3872,-216.30602 C 38.05639,115.05969 27.22319,109.48243 17.40129,99.572581 9.27549,91.374051 4.66149,83.302391 1.87669,72.413911 -0.63230997,62.603626 -0.62590997,54.391254 1.89869,44.5211 7.21369,23.739648 23.92719,6.9449297 44.63249,1.5796497 c 5.4271,-1.40629001 32.5244,-1.56972001 260.2691,-1.56972001 281.8933,0 258.9938,-0.55339 273.2031,6.60228301 8.6892,4.3758003 19.2017,14.6103683 24.1372,23.4989243 4.417,7.954805 7.6597,19.977289 7.6597,28.398789 0,8.0545 -3.1167,20.051965 -7.2255,27.813945 -4.0444,7.64051 -15.3842,19.261299 -22.8338,23.399619 -3.0576,1.69854 -8.6826,4.14534 -12.5,5.43734 l -6.9407,2.34909 -252,0.13291 c -138.6,0.0731 -254.3008,-0.20772 -257.1128,-0.62406 z"
     id="path42"
     inkscape:connector-curvature="0" />
</svg>
