<?xml version="1.0" encoding="UTF-8" standalone="no"?>
<!-- Creator: Graphic Tracer -->

<svg
   xmlns:dc="http://purl.org/dc/elements/1.1/"
   xmlns:cc="http://creativecommons.org/ns#"
   xmlns:rdf="http://www.w3.org/1999/02/22-rdf-syntax-ns#"
   xmlns:svg="http://www.w3.org/2000/svg"
   xmlns="http://www.w3.org/2000/svg"
   xmlns:sodipodi="http://sodipodi.sourceforge.net/DTD/sodipodi-0.dtd"
   xmlns:inkscape="http://www.inkscape.org/namespaces/inkscape"
   xml:space="preserve"
   width="116.82393mm"
   height="32.000515mm"
   version="1.1"
   style="clip-rule:evenodd;fill-rule:evenodd;shape-rendering:geometricPrecision"
   viewBox="0 0 11731.74 3304.0532"
   id="svg148"
   sodipodi:docname="FullLogo2.svg"
   inkscape:version="0.92.2 (5c3e80d, 2017-08-06)"><metadata
     id="metadata154"><rdf:RDF><cc:Work
         rdf:about=""><dc:format>image/svg+xml</dc:format><dc:type
           rdf:resource="http://purl.org/dc/dcmitype/StillImage" /><dc:title></dc:title></cc:Work></rdf:RDF></metadata><defs
     id="defs152" /><sodipodi:namedview
     pagecolor="#ffffff"
     bordercolor="#666666"
     borderopacity="1"
     objecttolerance="10"
     gridtolerance="10"
     guidetolerance="10"
     inkscape:pageopacity="0"
     inkscape:pageshadow="2"
     inkscape:window-width="1920"
     inkscape:window-height="1017"
     id="namedview150"
     showgrid="false"
     inkscape:zoom="3.68"
     inkscape:cx="123.76585"
     inkscape:cy="59.270429"
     inkscape:window-x="1432"
     inkscape:window-y="-8"
     inkscape:window-maximized="1"
     inkscape:current-layer="svg148"
     fit-margin-left="2"
     fit-margin-right="2"
     fit-margin-bottom="2"
     fit-margin-top="2"><inkscape:grid
       type="xygrid"
       id="grid159"
       originx="191.46083"
       originy="206.49984" /></sodipodi:namedview><g
     id="g146"
     style="fill:#ffffff"
     transform="translate(-2.1676235,239.39)"><path
       d="m 5421.49,739.59 v -609.2 h 80.6 v 609.2 z"
       id="path88"
       style="fill:#ffffff;stroke:none"
       inkscape:connector-curvature="0" /><path
       d="m 5610.99,739.59 v -441.3 h 67.3 v 62.8 c 32.4,-48.2 78.9,-72.7 140.4,-72.7 26.6,0 51.1,4.9 73.6,14.1 22,10 38.6,22.4 49.8,37.8 10.8,15.8 18.7,34.1 23.3,55.3 2.5,14.1 4.2,38.2 4.2,72.7 v 271.3 h -74.8 v -268.4 c 0,-30.3 -2.9,-53.2 -8.8,-68.6 -5.8,-14.9 -16.2,-27 -30.7,-36.1 -15,-8.7 -32.4,-13.3 -52.4,-13.3 -32,0 -59.4,10.4 -82.2,30.3 -23.3,20.4 -35,58.6 -35,115.1 v 241 z"
       id="path90"
       style="fill:#ffffff;stroke:none"
       inkscape:connector-curvature="0" /><path
       d="m 6044.39,607.89 73.9,-11.6 c 4.2,29.9 15.8,52.3 34.9,68.1 18.7,15.8 45.3,23.7 79.4,23.7 34.1,0 59.8,-7 76.5,-21.2 16.6,-13.7 24.9,-29.9 24.9,-49 0,-16.6 -7.5,-29.9 -22,-39.9 -10.4,-6.6 -35.8,-15 -76.5,-25.3 -54.8,-13.8 -93.1,-25.8 -113.9,-36.2 -21.6,-10 -37.4,-23.7 -48.2,-42 -11.2,-17.4 -16.6,-37.4 -16.6,-59 0,-19.5 4.6,-37.8 13.7,-54.8 8.8,-16.7 20.8,-30.4 36.6,-41.6 11.6,-8.3 27.4,-15.8 47.8,-22 19.9,-5.8 41.1,-8.7 64.4,-8.7 34.5,0 64.8,4.9 91.4,14.9 25.8,10 45.3,23.7 57.8,40.3 12.4,17.5 20.8,40.3 25.7,68.6 l -73.1,10 c -3.3,-22.5 -12.9,-40.3 -28.7,-53.2 -16.2,-12.5 -38.6,-19.1 -67.7,-19.1 -34.5,0 -59,5.8 -73.6,17 -14.9,11.6 -22,24.9 -22,39.9 0,10 2.9,18.7 9.2,26.2 5.8,8.3 15.3,14.9 28.6,19.9 7.5,2.9 29.5,9.2 66.1,19.1 52.8,14.2 89.8,25.8 111,34.5 20.7,9.2 36.9,22.5 49,39.5 11.6,17.5 17.9,38.6 17.9,64 0,24.9 -7.5,48.6 -21.6,70.2 -15,22.5 -35.8,39.5 -63.2,51.1 -27.4,12.1 -58.6,18.3 -93.1,18.3 -57.3,0 -101,-11.6 -130.9,-35.7 -30.3,-23.7 -49.4,-59 -57.7,-106 z"
       id="path92"
       style="fill:#ffffff;stroke:none"
       inkscape:connector-curvature="0" /><path
       d="m 6782.19,739.59 v -64.8 c -34.5,49.9 -81,74.8 -140,74.8 -26.2,0 -50.3,-5 -72.7,-14.9 -22.9,-10 -39.5,-22.5 -50.3,-37.9 -11.2,-14.9 -19.1,-33.2 -23.3,-55.2 -3.3,-14.6 -4.5,-37.8 -4.5,-69.8 v -273.5 h 74.7 v 244.8 c 0,39.1 1.3,65.7 4.6,78.9 4.6,20 14.6,35.4 29.9,46.2 15,11.6 34.1,17 56.6,17 22.4,0 43.2,-5.8 63.1,-17.4 19.6,-11.3 33.7,-27.1 42,-47 7.9,-19.5 12,-48.2 12,-86 v -236.5 h 74.8 v 441.3 z"
       id="path94"
       style="fill:#ffffff;stroke:none"
       inkscape:connector-curvature="0" /><path
       d="m 6960.89,739.59 v -441.3 h 67.3 v 66.9 c 17,-31.1 32.8,-51.9 47.8,-61.9 14.1,-10 30.3,-14.9 47.7,-14.9 25,0 50.7,8.3 76.9,24.1 l -25.7,69.4 c -18.3,-10.8 -36.6,-16.2 -54.9,-16.2 -16.6,0 -31.2,4.9 -44,14.5 -13.3,10 -22.5,23.7 -27.9,41.1 -8.3,26.6 -12.5,55.7 -12.5,87.3 v 231 z"
       id="path96"
       style="fill:#ffffff;stroke:none"
       inkscape:connector-curvature="0" /><path
       d="m 7521.89,685.19 c -27.9,23.7 -54.5,40.3 -79.8,49.9 -25.8,9.5 -53.6,14.5 -82.7,14.5 -48.6,0 -86,-11.6 -111.8,-35.7 -26.2,-23.3 -39,-53.6 -39,-90.6 0,-21.6 4.9,-41.1 14.9,-59.4 9.6,-17.5 22.4,-32 38.7,-42.8 15.7,-10.8 33.6,-18.7 53.6,-24.5 14.5,-3.8 36.5,-7.5 66.5,-11.3 60.2,-7 104.7,-15.8 133.3,-25.7 0,-10 0.5,-16.7 0.5,-19.6 0,-30.3 -7.1,-51.9 -21.2,-64.4 -19.1,-16.6 -47.8,-25.3 -85.2,-25.3 -35.3,0 -61.1,6.2 -77.7,18.3 -17.1,12.4 -29.5,34.5 -37.4,65.6 l -73.2,-10 c 6.7,-31.1 17.5,-56.5 32.9,-76 14.9,-19.1 36.9,-33.7 66,-44.5 28.7,-9.9 62,-15.3 100.2,-15.3 37.4,0 68.1,4.5 91.8,13.3 23.3,9.1 40.7,19.9 52,33.2 10.8,13.7 18.7,30.8 23.2,51.1 2.5,12.9 3.8,35.8 3.8,69 v 99.7 c 0,69.8 1.6,113.5 5,131.8 2.9,18.7 9.1,36.5 18.7,53.1 h -78.2 c -7.9,-15.3 -12.8,-33.6 -14.9,-54.4 z m -6.3,-167 c -27.4,11.2 -68.1,20.7 -122.1,28.2 -30.8,4.6 -52.8,9.6 -65.3,15 -12.9,5.8 -22.8,13.7 -29.5,24.1 -7,10.8 -10.4,22.8 -10.4,35.7 0,20 7.5,36.6 22.9,49.9 15,13.3 37,19.9 66.1,19.9 28.6,0 54.4,-6.2 76.8,-19.1 22.5,-12.5 38.7,-29.5 49.5,-51.5 7.9,-16.6 12,-41.6 12,-74.8 z"
       id="path98"
       style="fill:#ffffff;stroke:none"
       inkscape:connector-curvature="0" /><path
       d="m 7704.09,739.59 v -441.3 h 67.3 v 62.8 c 32.4,-48.2 78.9,-72.7 140.4,-72.7 26.6,0 51.1,4.9 73.6,14.1 22,10 38.6,22.4 49.8,37.8 10.8,15.8 18.7,34.1 23.3,55.3 2.5,14.1 4.2,38.2 4.2,72.7 v 271.3 h -74.8 v -268.4 c 0,-30.3 -2.9,-53.2 -8.8,-68.6 -5.8,-14.9 -16.2,-27 -30.7,-36.1 -15,-8.7 -32.4,-13.3 -52.4,-13.3 -32,0 -59.4,10.4 -82.2,30.3 -23.3,20.4 -35,58.6 -35,115.1 v 241 z"
       id="path100"
       style="fill:#ffffff;stroke:none"
       inkscape:connector-curvature="0" /><path
       d="m 8473.99,577.99 73.5,9.6 c -8.3,50.7 -28.6,90.5 -61.5,118.8 -33.2,29.1 -73.9,43.2 -122.1,43.2 -60.7,0 -108.9,-19.5 -145.5,-59.4 -37,-39.1 -55.2,-95.6 -55.2,-169.5 0,-47.4 7.8,-89.4 23.6,-125.1 15.8,-35.8 39.9,-62.4 72.3,-80.6 32,-17.5 66.9,-26.6 105.2,-26.6 47.8,0 86.8,12 117.6,36.1 30.3,24.5 49.8,59 58.6,103.5 l -72.7,11.2 c -7.1,-29.5 -19.2,-51.9 -36.6,-66.9 -17.9,-15 -39.1,-22.4 -64,-22.4 -37.8,0 -68.6,13.7 -91.9,40.3 -23.6,27.4 -35.3,70.2 -35.3,128.4 0,59.4 11.2,102.6 34.1,129.2 22.4,27 52.4,40.3 88.9,40.3 29.1,0 53.6,-8.7 73.6,-27 19.5,-17.9 32,-45.7 37.4,-83.1 z"
       id="path102"
       style="fill:#ffffff;stroke:none"
       inkscape:connector-curvature="0" /><path
       d="m 8922.29,597.49 77.3,9.6 c -12.5,45.3 -34.9,80.2 -67.8,105.1 -33.2,25 -75.2,37.4 -126.3,37.4 -64.8,0 -115.9,-19.9 -153.3,-59.8 -38.3,-39.5 -56.9,-95.2 -56.9,-167.1 0,-73.9 19.1,-131.7 57.3,-172.8 38.2,-40.8 87.7,-61.5 148.8,-61.5 59,0 107.2,20.3 144.6,60.2 37.4,40.3 56.1,96.8 56.1,169.6 0,4.5 -0.4,11.2 -0.4,19.9 h -329.2 c 2.5,48.6 16.2,85.6 41.2,111.4 24.5,25.7 55.3,38.6 92.2,38.6 27.5,0 50.7,-7 70.3,-21.6 19.1,-14.1 34.5,-37.4 46.1,-69 z m -245.6,-120.9 h 246.4 c -3.3,-37 -12.9,-64.8 -28.2,-83.5 -24.1,-28.7 -54.9,-43.2 -92.7,-43.2 -34.5,0 -63.2,11.6 -86.4,34.5 -23.7,23.2 -36.6,54 -39.1,92.2 z"
       id="path104"
       style="fill:#ffffff;stroke:none"
       inkscape:connector-curvature="0" /><path
       d="m 9628.09,667.79 c -24.9,27.4 -51.5,48.2 -80.6,61.5 -29.1,13.7 -60.7,20.7 -94.3,20.7 -62.4,0 -111.8,-20.7 -148.4,-63.1 -29.9,-34.1 -44.4,-72.7 -44.4,-115.1 0,-37.4 12,-71.5 36.5,-102.3 24.1,-29.9 60.3,-56.5 108.5,-79.7 -27.4,-31.6 -45.7,-57 -54.9,-76.9 -9.1,-19.6 -13.7,-38.7 -13.7,-57 0,-36.5 14.1,-68.1 43.2,-95.5 28.3,-26.6 64.4,-40.3 108.1,-40.3 41.5,0 75.6,12.8 102.2,38.2 26.2,25.8 39.5,56.1 39.5,91.8 0,58.2 -38.7,107.7 -115.1,148.4 l 109.3,139.2 c 12.4,-24.1 22,-52.4 29,-84.8 l 77.8,16.6 c -13.3,53.2 -31.6,97.3 -54.1,131.4 27.9,37.4 59.5,68.5 95.2,93.5 l -50.3,59.4 c -30.3,-19.1 -61.5,-47.8 -93.5,-86 z m -152.1,-317.5 c 32.4,-19.1 53.2,-35.8 63.2,-50.3 9.1,-14.1 14.1,-30.3 14.1,-47.8 0,-20.8 -6.6,-37.8 -19.5,-51.1 -13.3,-12.9 -29.9,-19.5 -49.5,-19.5 -20.3,0 -37,6.6 -50.2,19.5 -13.8,13.3 -20.4,29.1 -20.4,47.8 0,9.5 2.5,19.5 7.5,29.5 4.5,10.8 11.6,21.6 21.6,33.2 z m 105.2,258.5 -137.2,-170 c -40.7,24.1 -67.7,46.5 -81.8,66.9 -14.2,20.8 -21.2,41.5 -21.2,61.5 0,24.9 9.5,50.3 29.5,76.9 19.5,26.6 47.3,39.9 83.5,39.9 22.4,0 45.7,-7.1 69.8,-21.2 23.7,-13.7 42.8,-31.6 57.4,-54 z"
       id="path106"
       style="fill:#ffffff;stroke:none"
       inkscape:connector-curvature="0" /><path
       d="m 2833.59,2847.29 c -11.8,1.8 -23.5,4.1 -35.2,5.4 -81.5,8.9 -164.9,5.5 -246.4,0 -11.8,-1.8 -23.5,-3.6 -35.2,-5.3 -11.8,-2.6 -23.5,-5.1 -35.2,-7.6 -11.8,-4.9 -23.5,-9.8 -35.2,-14.7 -7.5,-7.4 -15,-14.7 -22.5,-22 -3.4,-11.8 -6.8,-23.5 -10.1,-35.2 -6.8,-397.7 -0.5,-798.8 -0.5,-1196.8 -1.4,-11.8 -2.7,-23.5 -4,-35.2 -9.6,-11.8 -19.1,-23.5 -28.6,-35.2 -130.7,-136.4 -263.2,-271.2 -391.9,-409.3 -48.5,-52 -98.3,-102.6 -147.4,-153.9 -33.7,-35.2 -67.4,-70.3 -100.9,-105.6 -68.6,-72.4 -136.3,-145.9 -209.3,-213.7 -11.8,-9.5 -23.5,-18.9 -35.2,-28.3 -11.8,-8.1 -23.5,-16.2 -35.2,-24.3 -11.8,-6.9 -23.5,-13.8 -35.2,-20.7 -11.8,-5.8 -23.5,-11.5 -35.2,-17.2 -23.3,-9.7 -46.6,-18.6 -70.4,-26.7 -11.8,-3 -23.5,-6 -35.2,-8.9 -82.2,-15.2 -164.3,-13.1 -246.4,-0.4 -11.8,2.6 -23.5,5.3 -35.2,8 -11.8,3.6 -23.5,7.2 -35.2,10.9 -23.9,8.9 -47.2,18.5 -70.4,29.1 -11.8,6.2 -23.5,12.5 -35.2,18.8 -11.8,7.5 -23.5,15 -35.2,22.5 -11.8,8.8 -23.5,17.7 -35.2,26.6 -55.3,43 -100,96.7 -139.7,153.9 -47.3,75.8 -73.1,158.7 -86.4,246.4 -14,108.5 4.9,215.9 45.1,316.8 5.6,11.7 11.2,23.4 16.9,35.2 6.6,11.7 13.2,23.4 19.9,35.2 16,23.9 31.8,47.7 49.8,70.4 10.1,11.7 20.2,23.4 30.4,35.2 10.6,10.7 21.3,21.4 32,32.1 32.8,28.7 66.5,55.1 102.4,80.1 44.1,27.8 91.4,45.6 140.8,61.5 68,21.5 140.6,22.2 211.2,17.5 11.7,-1.5 23.4,-3 35.2,-4.4 35.9,-7.3 70.7,-16.6 105.6,-27.8 11.7,-5.1 23.4,-10.1 35.2,-15.1 11.7,-6.2 23.4,-12.3 35.2,-18.4 11.7,-7.3 23.4,-14.6 35.2,-21.8 11.7,-8.8 23.4,-17.5 35.2,-26.2 13.8,-12.2 27.6,-24.3 41.4,-36.4 11.4,-11.7 22.9,-23.4 34.4,-35 11.8,-13.8 23.6,-27.6 35.5,-41.3 8.7,-11.8 17.4,-23.5 26.1,-35.2 14.7,-23.3 28.9,-46.6 42.6,-70.4 5.4,-11.8 10.9,-23.5 16.4,-35.2 8.9,-23.4 17,-46.7 24.8,-70.4 l 27.7,-102.9 c 89.6,92.8 178.6,186.4 268.8,278.9 l 250.1,261.2 v 481 c -21.3,10.2 -42.6,20.4 -63.8,30.6 -11.8,2.9 -23.5,5.8 -35.2,8.7 -105.7,15.7 -211.1,13.7 -316.8,1.1 -11.8,-2.4 -23.5,-4.8 -35.2,-7.1 -11.8,-4.4 -23.5,-8.7 -35.2,-13 -8.7,-7.8 -17.4,-15.6 -26.1,-23.3 -3.1,-11.8 -6.2,-23.5 -9.2,-35.2 v -97.8 c -200.9,122 -399.5,174.2 -633.5,172.2 -96.3,-3.2 -189.2,-22.7 -281.6,-47.9 -11.8,-3.3 -23.5,-6.8 -35.2,-10.2 -35.5,-13.6 -70.6,-27.9 -105.6,-42.5 -67.9,-30.4 -133.4,-70.6 -193.2,-114.6 -103.6,-78.5 -192.3,-176.4 -267.8,-281.6 l -146.3,-304.9 c -0.4,-1.3 -18.8,-74.3 -20.3,-82.3 l -19.9,-124.2 c -5.9,-75.9 -4.7,-152 1.2,-227.8 8.4,-109 40.2,-215.3 79.3,-316.8 102.4,-233.3 277.2,-427.4 496.6,-555.6 33.4,-20 69.8,-35.8 105.6,-51.1 34.2,-14.8 69.8,-26.6 105.6,-37.1 11.7,-3.5 23.4,-6.8 35.2,-10.2 35,-7.98 70.2,-15.18 105.6,-21.68 23.4,-2.7 46.9,-5.4 70.4,-7.9 46.7,-5.1 93.8,-5.2 140.8,-5.2 0,0 105.6,8.6 105.6,8.6 0,0 176,35.58 176,35.58 11.7,3 23.4,6.5 35.2,9.8 l 203.9,88.6 c 93,53.7 175.1,121.3 253.8,194 94.9,87.7 177.7,187.2 265.6,281.8 28.3,30.5 57.5,60.4 86.3,90.7 82.6,86.9 165.7,173.5 247.5,261.3 55.2,59.2 111.7,117.2 167.5,176 84.5,89.1 168.1,179.2 253.8,267.4 47.2,48.6 92.8,98.6 140.8,146.6 42.8,38.6 90.3,69.8 140.8,97.2 11.7,5.4 23.4,10.8 35.2,16.3 34.7,13.3 69.4,24.5 105.6,33.4 58.1,12.5 116.8,13.7 176,11.7 73.8,-3.6 144.2,-27.6 211.2,-57.1 11.7,-6.1 23.4,-12.2 35.2,-18.3 11.7,-7.2 23.4,-14.4 35.2,-21.6 11.7,-8.3 23.4,-16.6 35.2,-24.9 11.7,-9.7 23.4,-19.4 35.2,-29.1 11.7,-11.5 23.5,-22.9 35.3,-34.3 10.3,-11.8 20.7,-23.6 31.1,-35.3 16.9,-23.2 33.3,-46.4 48.9,-70.4 6.4,-11.8 12.9,-23.5 19.4,-35.2 5.4,-11.8 10.8,-23.5 16.3,-35.2 13.3,-34.9 24.6,-69.5 33.9,-105.6 2.1,-11.8 4.2,-23.5 6.3,-35.2 4.1,-35.4 6.1,-70.1 6.5,-105.6 -1.2,-48 -10.1,-94.5 -21.5,-140.8 -15.8,-63.3 -47.2,-122 -82.9,-176 -8.8,-11.8 -17.6,-23.5 -26.3,-35.2 -10.4,-12 -20.7,-24 -31,-36 -12,-11.6 -24,-23.2 -36,-34.7 -11.8,-9.8 -23.5,-19.6 -35.2,-29.4 -23.2,-16.3 -46.4,-31.7 -70.4,-46.5 -34.5,-18.1 -69.1,-33.4 -105.6,-46.2 -57,-19.5 -116.3,-27.8 -176,-30.8 -85.1,-2.2 -167.6,16.4 -246.4,46.8 -152.3,68.6 -248.4,168.8 -319,317.6 -4.5,11.7 -9,23.4 -13.5,35.2 l -31.3,102.5 c -32.5,-34.2 -65.1,-68.3 -97.5,-102.5 -89,-94 -177.7,-188.2 -267.1,-281.6 -9.4,-11.8 -18.7,-23.5 -28,-35.2 4.2,-11.8 8.4,-23.5 12.7,-35.2 146.5,-274.3 434.8,-480.1 737.9,-542.1 71.4,-15.78 143.9,-22.88 217,-24.08 47,-0.9 93.9,2.2 140.8,5.8 35.3,2.6 70.6,10 105.6,15.58 l 125.3,33.1 c 66.3,21.4 129.4,50.8 191.5,82.4 90.4,49 171.8,112.3 246.9,182.3 46.1,42.1 84,91.8 121.8,141.4 l 79,123.4 c 50.4,93.3 84.6,196.1 109.9,299 5.8,35.1 11.7,70.3 17.1,105.6 3.9,26.1 0.8,8.8 2.5,35.2 0,0 3.6,105.6 3.6,105.6 l -21,202.3 c -6.6,26.4 -12.2,53.2 -20.3,79.3 -22.7,72.6 -49.7,143.4 -84.1,211.2 -13.5,26.5 -3.5,9.4 -18.5,35.2 -112,192.4 -274.5,344.6 -472.1,446 l -60.6,29.3 c -1.6,0.5 -73.1,27.2 -80.2,29.5 -46.5,14.9 -93.4,27.4 -140.8,38.8 -81,16.1 -164,21.8 -246.4,21.8 -11.8,-0.6 -23.5,-1.2 -35.2,-1.8 -186.6,-9.6 -370,-64.6 -530.2,-161.4 l -0.3,753 c -22.7,14.3 -45.3,28.6 -67.9,43 -11.8,2.5 -23.5,5 -35.2,7.6 z"
       id="path108"
       style="fill:#ffffff;stroke:none"
       inkscape:connector-curvature="0" /><path
       d="m 5428.49,1798.69 v -585.4 h 219.6 c 44.7,0 80.6,6 107.8,17.6 26.7,12 47.9,30.4 63.5,54.7 15.2,24.8 22.7,50.7 22.7,77.5 0,25.2 -6.7,48.7 -20.3,70.7 -13.6,22.3 -34.4,39.9 -61.5,53.5 35.1,10.4 62.7,28.3 81.8,53.1 18.8,25.1 28.4,54.7 28.4,88.6 0,27.6 -6,53.1 -17.2,76.3 -12,24 -26.3,41.9 -43.1,54.7 -17.2,12.8 -38.3,22.4 -63.9,28.8 -25.9,6.8 -57.5,9.9 -94.6,9.9 z m 77.4,-339.4 h 126.6 c 34.3,0 58.7,-2 73.9,-6.8 19.5,-5.5 34.3,-15.5 44.7,-29.1 9.6,-13.6 14.8,-30.4 14.8,-51.1 0,-19.2 -4.8,-36.4 -14,-51.5 -9.6,-14.4 -22.8,-24.8 -39.9,-30.4 -17.6,-5.2 -47.2,-8 -89.1,-8 h -117 z m 0,270.4 h 145.8 c 24.7,0 42.3,-0.8 52.7,-2.8 17.5,-3.2 32.7,-8.4 44.7,-16 12,-7.2 21.6,-18.4 29.6,-32.7 7.5,-14 11.5,-30.4 11.5,-49.2 0,-21.5 -5.6,-40.7 -16.7,-57.1 -11.2,-15.9 -26.8,-27.1 -46.4,-33.9 -19.9,-6.4 -48.7,-9.6 -85.8,-9.6 h -135.4 z"
       id="path110"
       style="fill:#ffffff;stroke:none"
       inkscape:connector-curvature="0" /><path
       d="m 6277.49,1662.19 74.3,9.2 c -12,43.5 -33.6,77 -65.1,101 -31.9,24 -72.3,35.9 -121.4,35.9 -62.3,0 -111.4,-19.1 -147.3,-57.5 -36.8,-37.9 -54.7,-91.4 -54.7,-160.5 0,-71.1 18.3,-126.6 55.1,-166.1 36.7,-39.1 84.2,-59.1 142.9,-59.1 56.7,0 103,19.6 139,57.9 35.9,38.7 53.9,93 53.9,162.9 0,4.4 -0.4,10.8 -0.4,19.2 h -316.3 c 2.4,46.7 15.6,82.2 39.6,107 23.5,24.8 53.1,37.1 88.6,37.1 26.4,0 48.7,-6.8 67.5,-20.7 18.4,-13.6 33.1,-36 44.3,-66.3 z m -236,-116.2 h 236.8 c -3.2,-35.6 -12.4,-62.3 -27.1,-80.3 -23.2,-27.5 -52.8,-41.5 -89.1,-41.5 -33.1,0 -60.7,11.2 -83,33.1 -22.8,22.4 -35.2,51.9 -37.6,88.7 z"
       id="path112"
       style="fill:#ffffff;stroke:none"
       inkscape:connector-curvature="0" /><path
       d="m 6462.79,1798.69 v -424 h 64.6 v 60.3 c 31.2,-46.3 75.9,-69.9 135,-69.9 25.6,0 49.1,4.8 70.7,13.6 21.2,9.6 37.1,21.5 47.9,36.3 10.4,15.2 18,32.7 22.4,53.1 2.4,13.6 4,36.8 4,69.9 v 260.7 h -71.9 v -257.9 c 0,-29.2 -2.8,-51.1 -8.4,-65.9 -5.6,-14.4 -15.6,-26 -29.6,-34.7 -14.3,-8.4 -31.1,-12.8 -50.3,-12.8 -30.7,0 -57.1,10 -79,29.1 -22.4,19.6 -33.6,56.3 -33.6,110.6 v 231.6 z"
       id="path114"
       style="fill:#ffffff;stroke:none"
       inkscape:connector-curvature="0" /><path
       d="m 7234.99,1662.19 74.3,9.2 c -12,43.5 -33.6,77 -65.1,101 -31.9,24 -72.3,35.9 -121.4,35.9 -62.3,0 -111.4,-19.1 -147.3,-57.5 -36.8,-37.9 -54.7,-91.4 -54.7,-160.5 0,-71.1 18.3,-126.6 55.1,-166.1 36.7,-39.1 84.2,-59.1 142.9,-59.1 56.7,0 103,19.6 139,57.9 35.9,38.7 53.9,93 53.9,162.9 0,4.4 -0.4,10.8 -0.4,19.2 h -316.3 c 2.4,46.7 15.6,82.2 39.6,107 23.5,24.8 53.1,37.1 88.6,37.1 26.4,0 48.7,-6.8 67.5,-20.7 18.4,-13.6 33.1,-36 44.3,-66.3 z m -236,-116.2 h 236.8 c -3.2,-35.6 -12.4,-62.3 -27.1,-80.3 -23.2,-27.5 -52.8,-41.5 -89.1,-41.5 -33.1,0 -60.7,11.2 -83,33.1 -22.8,22.4 -35.2,51.9 -37.6,88.7 z"
       id="path116"
       style="fill:#ffffff;stroke:none"
       inkscape:connector-curvature="0" /><path
       d="m 7411.19,1798.69 v -368.1 h -63.4 v -55.9 h 63.4 v -45.1 c 0,-28.4 2.4,-49.6 7.6,-63.5 6.8,-18.4 19.2,-33.6 36.8,-45.6 17.1,-11.1 41.5,-17.1 73,-17.1 20,0 42.4,2.4 67.1,7.2 l -10.8,62.6 c -15.1,-2.3 -29.1,-3.9 -42.3,-3.9 -21.9,0 -37.5,4.7 -46.3,13.9 -9.2,9.6 -13.6,26.8 -13.6,52.3 v 39.2 h 82.7 v 55.9 h -82.7 v 368.1 z"
       id="path118"
       style="fill:#ffffff;stroke:none"
       inkscape:connector-curvature="0" /><path
       d="m 7688.29,1295.99 v -82.7 h 71.8 v 82.7 z"
       id="path120"
       style="fill:#ffffff;stroke:none"
       inkscape:connector-curvature="0" /><path
       d="m 7688.29,1798.69 v -424 h 71.8 v 424 z"
       id="path122"
       style="fill:#ffffff;stroke:none"
       inkscape:connector-curvature="0" /><path
       d="m 7993.29,1734.49 10.4,63.5 c -20.4,3.9 -38.3,6.3 -54.3,6.3 -26.4,0 -46.3,-4.4 -60.7,-12.3 -14.4,-8 -24.8,-19.2 -30.4,-32.8 -5.9,-13.2 -8.7,-41.5 -8.7,-84.6 v -244 h -52.7 v -55.9 h 52.7 v -105 l 71.4,-43.2 v 148.2 h 72.3 v 55.9 h -72.3 v 248 c 0,20.7 1.2,33.9 4,39.5 2.4,6 6.4,10.8 12.4,14 5.6,3.6 13.6,5.2 24.4,5.2 8,0 18.3,-0.8 31.5,-2.8 z"
       id="path124"
       style="fill:#ffffff;stroke:none"
       inkscape:connector-curvature="0" /><path
       d="m 8287.59,1610.69 73,-6.4 c 3.2,29.5 11.6,53.5 24.4,71.9 12.4,19.1 31.9,34.3 58.7,45.5 26.3,12 56.3,17.6 89.8,17.6 29.6,0 55.5,-4.4 78.3,-13.2 22.4,-8.8 39.5,-20.8 50.7,-36.4 10.8,-15.1 16.4,-31.5 16.4,-49.9 0,-18.3 -5.6,-34.3 -16,-48.3 -10.8,-13.6 -28.3,-24.8 -52.7,-34.3 -16,-6 -50.7,-15.6 -104.2,-28.8 -53.9,-12.8 -91.5,-24.7 -113,-36.3 -28,-14.4 -48.7,-32.8 -62.3,-54.7 -14,-21.6 -20.8,-45.6 -20.8,-72.7 0,-29.6 8.4,-57.1 25.2,-83.1 16.7,-25.5 41.1,-44.7 73.4,-58.3 32,-13.1 67.9,-19.9 107.5,-19.9 43.1,0 81.4,7.2 115,20.7 32.7,14.4 58.3,34.8 76.2,61.9 17.6,27.2 27.2,57.9 28.8,92.3 l -74.3,5.6 c -4,-36.8 -17.6,-64.7 -40.3,-83.9 -23.2,-18.8 -57.5,-28.3 -102.2,-28.3 -47.2,0 -81.1,8.7 -102.3,25.5 -21.5,17.6 -32.3,38.3 -32.3,62.3 0,21.2 7.6,38.3 22.7,51.9 14.8,13.6 54,27.6 117,41.5 62.7,14.4 105.9,27.2 129.4,37.6 34,15.9 59.1,35.5 75.5,59.5 16,24.3 24.4,52.3 24.4,83.4 0,31.2 -9.2,60.7 -26.8,87.9 -18,27.9 -43.5,49.1 -76.7,64.3 -33.5,15.1 -71.4,23.1 -113,23.1 -53.1,0 -97.4,-8 -132.9,-23.1 -36,-15.2 -64.3,-38.8 -84.3,-69.9 -20.8,-30.8 -31.6,-65.9 -32.3,-105 z"
       id="path126"
       style="fill:#ffffff;stroke:none"
       inkscape:connector-curvature="0" /><path
       d="m 8830.09,1586.69 c 0,-78.3 21.5,-136.6 65.4,-174.5 36.4,-31.1 80.7,-47.1 133.4,-47.1 58.3,0 105.8,19.2 143,57.1 36.7,38.3 55.5,91.4 55.5,158.5 0,54.7 -8.4,97.5 -24.4,128.6 -16.8,31.5 -40.3,55.9 -71.5,73.1 -31.5,17.1 -65.9,25.9 -102.6,25.9 -59.5,0 -107.4,-18.7 -143.7,-57.1 -36.8,-37.9 -55.1,-92.6 -55.1,-164.5 z m 73.8,0 c 0,54.3 11.6,95 35.6,121.8 23.5,27.2 53.5,40.7 89.4,40.7 35.5,0 65.1,-13.5 89.1,-40.7 23.5,-27.1 35.5,-68.3 35.5,-124.2 0,-52.3 -12,-92.2 -35.5,-119.4 -24,-26.7 -53.9,-40.3 -89.1,-40.3 -35.9,0 -65.9,13.6 -89.4,40.3 -24,27.2 -35.6,67.5 -35.6,121.8 z"
       id="path128"
       style="fill:#ffffff;stroke:none"
       inkscape:connector-curvature="0" /><path
       d="m 9328.49,1798.69 v -585.4 h 71.8 v 585.4 z"
       id="path130"
       style="fill:#ffffff;stroke:none"
       inkscape:connector-curvature="0" /><path
       d="m 9808.99,1798.69 v -62.2 c -33.2,47.9 -77.9,71.8 -134.6,71.8 -25.2,0 -48.3,-4.8 -69.9,-14.3 -21.9,-9.6 -37.9,-21.6 -48.3,-36.4 -10.8,-14.4 -18.4,-31.9 -22.4,-53.1 -3.2,-14 -4.3,-36.3 -4.3,-67.1 v -262.7 h 71.8 v 235.2 c 0,37.5 1.2,63.1 4.4,75.8 4.4,19.2 14,34 28.8,44.4 14.3,11.1 32.7,16.3 54.3,16.3 21.5,0 41.5,-5.6 60.7,-16.7 18.7,-10.8 32.3,-26 40.3,-45.2 7.6,-18.7 11.6,-46.3 11.6,-82.6 v -227.2 h 71.9 v 424 z"
       id="path132"
       style="fill:#ffffff;stroke:none"
       inkscape:connector-curvature="0" /><path
       d="m 10140.49,1734.49 10.4,63.5 c -20.4,3.9 -38.3,6.3 -54.3,6.3 -26.4,0 -46.3,-4.4 -60.7,-12.3 -14.4,-8 -24.8,-19.2 -30.4,-32.8 -5.9,-13.2 -8.7,-41.5 -8.7,-84.6 v -244 h -52.7 v -55.9 h 52.7 v -105 l 71.4,-43.2 v 148.2 h 72.3 v 55.9 h -72.3 v 248 c 0,20.7 1.2,33.9 4,39.5 2.4,6 6.4,10.8 12.4,14 5.6,3.6 13.6,5.2 24.4,5.2 8,0 18.3,-0.8 31.5,-2.8 z"
       id="path134"
       style="fill:#ffffff;stroke:none"
       inkscape:connector-curvature="0" /><path
       d="m 10243.69,1295.99 v -82.7 h 71.8 v 82.7 z"
       id="path136"
       style="fill:#ffffff;stroke:none"
       inkscape:connector-curvature="0" /><path
       d="m 10243.69,1798.69 v -424 h 71.8 v 424 z"
       id="path138"
       style="fill:#ffffff;stroke:none"
       inkscape:connector-curvature="0" /><path
       d="m 10431.59,1586.69 c 0,-78.3 21.5,-136.6 65.4,-174.5 36.4,-31.1 80.7,-47.1 133.4,-47.1 58.3,0 105.8,19.2 143,57.1 36.7,38.3 55.5,91.4 55.5,158.5 0,54.7 -8.4,97.5 -24.4,128.6 -16.8,31.5 -40.3,55.9 -71.5,73.1 -31.5,17.1 -65.9,25.9 -102.6,25.9 -59.5,0 -107.4,-18.7 -143.7,-57.1 -36.8,-37.9 -55.1,-92.6 -55.1,-164.5 z m 73.8,0 c 0,54.3 11.6,95 35.6,121.8 23.5,27.2 53.5,40.7 89.4,40.7 35.5,0 65.1,-13.5 89.1,-40.7 23.5,-27.1 35.5,-68.3 35.5,-124.2 0,-52.3 -12,-92.2 -35.5,-119.4 -24,-26.7 -53.9,-40.3 -89.1,-40.3 -35.9,0 -65.9,13.6 -89.4,40.3 -24,27.2 -35.6,67.5 -35.6,121.8 z"
       id="path140"
       style="fill:#ffffff;stroke:none"
       inkscape:connector-curvature="0" /><path
       d="m 10933.19,1798.69 v -424 h 64.6 v 60.3 c 31.2,-46.3 75.9,-69.9 135,-69.9 25.6,0 49.1,4.8 70.7,13.6 21.2,9.6 37.1,21.5 47.9,36.3 10.4,15.2 18,32.7 22.4,53.1 2.4,13.6 4,36.8 4,69.9 v 260.7 h -71.9 v -257.9 c 0,-29.2 -2.8,-51.1 -8.4,-65.9 -5.6,-14.4 -15.6,-26 -29.6,-34.7 -14.3,-8.4 -31.1,-12.8 -50.3,-12.8 -30.7,0 -57.1,10 -79,29.1 -22.4,19.6 -33.6,56.3 -33.6,110.6 v 231.6 z"
       id="path142"
       style="fill:#ffffff;stroke:none"
       inkscape:connector-curvature="0" /><path
       d="m 11331.99,1672.19 71,-11.2 c 4,28.7 15.2,50.3 33.6,65.5 17.9,15.1 43.5,22.7 76.2,22.7 32.8,0 57.5,-6.8 73.5,-20.3 16,-13.2 24,-28.8 24,-47.2 0,-15.9 -7.2,-28.7 -21.2,-38.3 -10,-6.4 -34.3,-14.4 -73.5,-24.3 -52.7,-13.2 -89.4,-24.8 -109.4,-34.8 -20.7,-9.6 -35.9,-22.7 -46.3,-40.3 -10.8,-16.8 -16,-36 -16,-56.7 0,-18.8 4.4,-36.4 13.2,-52.7 8.4,-16 20,-29.2 35.1,-40 11.2,-7.9 26.4,-15.1 46,-21.1 19.1,-5.6 39.5,-8.4 61.9,-8.4 33.1,0 62.3,4.8 87.8,14.4 24.8,9.5 43.5,22.7 55.5,38.7 12,16.8 20,38.7 24.8,65.9 l -70.3,9.6 c -3.2,-21.6 -12.4,-38.8 -27.6,-51.1 -15.5,-12 -37.1,-18.4 -65,-18.4 -33.2,0 -56.7,5.6 -70.7,16.4 -14.4,11.1 -21.2,23.9 -21.2,38.3 0,9.6 2.8,18 8.8,25.2 5.6,7.9 14.8,14.3 27.5,19.1 7.2,2.8 28.4,8.8 63.5,18.4 50.8,13.6 86.3,24.7 106.7,33.1 19.9,8.8 35.5,21.6 47.1,38 11.2,16.7 17.1,37.1 17.1,61.5 0,23.9 -7.1,46.7 -20.7,67.4 -14.4,21.6 -34.4,38 -60.7,49.2 -26.4,11.5 -56.3,17.5 -89.5,17.5 -55.1,0 -97,-11.1 -125.7,-34.3 -29.2,-22.8 -47.6,-56.7 -55.5,-101.8 z"
       id="path144"
       style="fill:#ffffff;stroke:none"
       inkscape:connector-curvature="0" /></g></svg>